<?xml version="1.0" encoding="utf-8"?>
<!-- Generator: Adobe Illustrator 27.4.0, SVG Export Plug-In . SVG Version: 6.00 Build 0)  -->
<svg version="1.1" id="Livello_2_00000058565069499269520840000008837828309896521346_"
	 xmlns="http://www.w3.org/2000/svg" xmlns:xlink="http://www.w3.org/1999/xlink" x="0px" y="0px" viewBox="0 0 63.5 87.7"
	 style="enable-background:new 0 0 63.5 87.7;" xml:space="preserve">
<style type="text/css">
	.st0{fill:#1E1E1E;}
	.st1{fill:#E8B33D;}
</style>
<path class="st0" d="M3.4,68l6.1-10.7c0.6-0.8,1.9-1.7,3.3-0.8c2.8,1.7,6.7,2.8,9.9,2.8c2.6,0,3.7-1.4,3.7-2.6
	c0-1.9-1.7-3.3-5.9-5.8c-8-4.7-12.7-9.8-12.7-16.9c0-10.5,8.3-19.5,23.4-19.5c8.7,0,16.1,3.4,18.3,4.8c1.1,0.7,1.2,1.9,0.3,3.4
	L44,33c-0.6,0.8-1.8,1.4-2.8,0.8c-2.2-1.1-5.9-2.6-10.5-2.6c-2.2,0-3.3,0.8-3.3,2.1c0,1.8,1.8,2.9,4.5,4.5
	C41,43,47.7,47.5,47.7,56.1c0,12-8.5,20.2-25.9,20.2c-8.7,0-15.7-3-17.9-5C3.2,70.1,2.6,69.3,3.4,68L3.4,68z"/>
<circle class="st1" cx="55.4" cy="68.7" r="7.6"/>
</svg>
