<?xml version="1.0" encoding="utf-8"?>
<!-- Generator: Adobe Illustrator 27.4.0, SVG Export Plug-In . SVG Version: 6.00 Build 0)  -->
<svg version="1.1" id="Livello_2_00000057150496903498285680000000828360475197681335_"
	 xmlns="http://www.w3.org/2000/svg" xmlns:xlink="http://www.w3.org/1999/xlink" x="0px" y="0px" viewBox="0 0 256.5 102.8"
	 style="enable-background:new 0 0 256.5 102.8;" xml:space="preserve">
<style type="text/css">
	.st0{fill:#FFFFFF;}
	.st1{fill:#E8B33D;}
</style>
<path class="st0" d="M22.3,82.9c1,1.1,3.7,3.7,7.6,3.7c3.3,0,6.9-2.4,8-10.1l0.4-3.8c0,0-3.3,1.6-7.2,1.6c-7.9,0-15.2-8-15.2-18.1
	c0-12.7,9.1-23.6,20.7-23.6c9.1,0,11.9,6.3,11.9,6.3l1.7-4c0.4-1,1.2-1.4,2.2-1.4H57c0.9,0,1.6,0.8,1.4,1.9l-5.7,41
	c-2.3,15.8-10,22.6-22,22.6c-9.2,0-14.8-5.7-15.9-7.2c-0.6-0.8-1.6-1.9-0.2-3.6l4.5-5.4C20.2,81.6,21.5,82.1,22.3,82.9L22.3,82.9z
	 M42.8,52.5c0-3.9-2.4-7-5.6-7c-3.7,0-7.5,4-7.5,9.1c0,3.8,2.2,6.8,5.3,6.8C39.3,61.3,42.8,57.6,42.8,52.5z"/>
<path class="st0" d="M84.9,32.6c9.1,0,16.4,8.3,16.4,18.6c0,12.7-9.1,23.2-21.5,23.2c-8.9,0-16.4-8-16.4-18.4
	C63.4,43.2,72,32.6,84.9,32.6z M88.6,52.2c0-3.7-2.2-6.7-5.2-6.7c-3.8,0-7.2,4.1-7.2,9.1c0,3.7,2,6.7,5.1,6.7
	C85,61.3,88.6,57.2,88.6,52.2z"/>
<path class="st0" d="M127.6,32.6c9.1,0,16.4,8.3,16.4,18.6c0,12.7-9.2,23.2-21.5,23.2c-8.9,0-16.4-8-16.4-18.4
	C106,43.2,114.7,32.6,127.6,32.6z M131.3,52.2c0-3.7-2.2-6.7-5.2-6.7c-3.8,0-7.2,4.1-7.2,9.1c0,3.7,2,6.7,5.1,6.7
	C127.7,61.3,131.3,57.2,131.3,52.2z"/>
<path class="st0" d="M148.9,55.7c0-13.4,10.2-23.2,21-23.2c4.3,0,6.9,1.6,6.9,1.6l4.1-28.5c0.2-1.1,0.6-1.9,2-1.9h11.2
	c0.9,0,1.6,0.9,1.5,1.9l-9.3,65.8c-0.2,1-1.1,1.9-1.9,1.9h-4.6c-0.6,0-1.3-0.6-1.5-1.2l-1.1-3.8c-1.9,2.2-6.9,5.9-13.2,5.9
	C154.5,74.3,148.9,65.4,148.9,55.7L148.9,55.7z M175.8,52.5c0.1-4-2.6-7-5.7-7c-3.9,0-7.4,4.1-7.4,9.1c0,3.8,2.4,6.8,5.5,6.8
	C172,61.3,175.8,57.3,175.8,52.5z"/>
<path class="st0" d="M195.1,68.8l4.1-7.2c0.4-0.6,1.3-1.1,2.2-0.6c1.9,1.1,4.5,1.9,6.7,1.9c1.8,0,2.5-0.9,2.5-1.8
	c0-1.3-1.1-2.2-4-3.9c-5.4-3.2-8.5-6.6-8.5-11.4c0-7.1,5.6-13.2,15.8-13.2c5.8,0,10.9,2.3,12.3,3.2c0.7,0.5,0.8,1.3,0.2,2.3l-3.9,7
	c-0.4,0.6-1.2,0.9-1.9,0.6c-1.5-0.7-4-1.8-7.1-1.8c-1.5,0-2.2,0.6-2.2,1.4c0,1.2,1.2,1.9,3.1,3.1c6,3.5,10.6,6.6,10.6,12.3
	c0,8.1-5.8,13.6-17.4,13.6c-5.8,0-10.6-2-12.1-3.3C194.9,70.2,194.5,69.7,195.1,68.8L195.1,68.8z"/>
<g>
	<path class="st0" d="M66,92.1l0.5-0.8c0.1-0.2,0.4-0.2,0.5-0.1c0.1,0,1.2,0.8,2.1,0.8c0.7,0,1.3-0.5,1.3-1.1c0-0.7-0.6-1.2-1.8-1.7
		c-1.3-0.6-2.6-1.4-2.6-3c0-1.2,0.9-2.7,3.2-2.7c1.4,0,2.5,0.7,2.8,0.9c0.1,0.1,0.2,0.3,0.1,0.5l-0.6,0.8c-0.1,0.2-0.3,0.3-0.5,0.2
		c-0.1-0.1-1.2-0.7-1.9-0.7c-0.8,0-1.2,0.6-1.2,0.9c0,0.6,0.6,1.1,1.7,1.6c1.4,0.6,2.9,1.4,2.9,3.2c0,1.4-1.2,2.8-3.2,2.8
		c-1.8,0-2.8-0.8-3.1-1.1C66,92.4,65.9,92.3,66,92.1z"/>
	<path class="st0" d="M95.1,84c0-0.1,0.1-0.3,0.3-0.3h3.2c1.7,0,3.2,1.4,3.2,3.1c0,1.8-1.4,3.2-3.1,3.2h-1.8v3.2
		c0,0.2-0.1,0.3-0.3,0.3h-1.3c-0.2,0-0.3-0.1-0.3-0.3C95.1,93.1,95.1,84,95.1,84z M98.5,88.2c0.7,0,1.4-0.6,1.4-1.5
		c0-0.7-0.6-1.4-1.4-1.4h-1.6v2.8L98.5,88.2L98.5,88.2z"/>
	<path class="st0" d="M128.5,83.6c2.8,0,5,2.2,5,5s-2.2,5-5,5s-5-2.2-5-5C123.5,85.8,125.7,83.6,128.5,83.6z M128.5,91.8
		c1.8,0,3.2-1.4,3.2-3.2s-1.5-3.2-3.2-3.2c-1.8,0-3.2,1.5-3.2,3.2S126.7,91.8,128.5,91.8z"/>
	<path class="st0" d="M156.2,84c0-0.1,0.1-0.3,0.3-0.3h4c1.7,0,3.1,1.3,3.1,3c0,1.3-0.8,2.3-2,2.8l1.9,3.5c0.1,0.2,0,0.4-0.3,0.4
		h-1.5c-0.1,0-0.2-0.1-0.2-0.1l-1.9-3.7H158v3.5c0,0.2-0.1,0.3-0.3,0.3h-1.3c-0.2,0-0.3-0.1-0.3-0.3L156.2,84L156.2,84z M160.3,88.1
		c0.7,0,1.4-0.6,1.4-1.4c0-0.7-0.6-1.4-1.4-1.4h-2.2v2.8H160.3z"/>
	<path class="st0" d="M187.7,85.4h-2.1c-0.2,0-0.3-0.1-0.3-0.3V84c0-0.1,0.1-0.3,0.3-0.3h6.1c0.2,0,0.3,0.1,0.3,0.3v1.1
		c0,0.1-0.1,0.3-0.3,0.3h-2.1v7.8c0,0.2-0.1,0.3-0.3,0.3H188c-0.1,0-0.3-0.1-0.3-0.3L187.7,85.4L187.7,85.4z"/>
	<path class="st0" d="M213.6,92.1l0.5-0.8c0.1-0.2,0.4-0.2,0.5-0.1c0.1,0,1.2,0.8,2.1,0.8c0.7,0,1.3-0.5,1.3-1.1
		c0-0.7-0.6-1.2-1.8-1.7c-1.3-0.6-2.6-1.4-2.6-3c0-1.2,0.9-2.7,3.2-2.7c1.4,0,2.5,0.7,2.8,0.9c0.1,0.1,0.2,0.3,0.1,0.5l-0.6,0.8
		c-0.1,0.2-0.3,0.3-0.5,0.2c-0.1-0.1-1.2-0.7-1.9-0.7c-0.8,0-1.2,0.6-1.2,0.9c0,0.6,0.6,1.1,1.7,1.6c1.4,0.6,2.9,1.4,2.9,3.2
		c0,1.4-1.2,2.8-3.2,2.8c-1.8,0-2.8-0.8-3.1-1.1C213.5,92.4,213.5,92.3,213.6,92.1z"/>
</g>
<circle class="st1" cx="240.2" cy="29.8" r="9.1"/>
</svg>
