<?xml version="1.0" encoding="utf-8"?>
<!-- Generator: Adobe Illustrator 27.4.0, SVG Export Plug-In . SVG Version: 6.00 Build 0)  -->
<svg version="1.1" id="Livello_2_00000057150496903498285680000000828360475197681335_"
	 xmlns="http://www.w3.org/2000/svg" xmlns:xlink="http://www.w3.org/1999/xlink" x="0px" y="0px" viewBox="0 0 256.5 102.8"
	 style="enable-background:new 0 0 256.5 102.8;" xml:space="preserve">
<style type="text/css">
	.st0{fill:#1E1E1E;}
	.st1{fill:#E8B33D;}
</style>
<g id="Livello_1-2">
	<path class="st0" d="M9.1,85.4c1.1,1.2,4,4,8.2,4c3.6,0,7.4-2.6,8.6-10.9l0.4-4.1c0,0-3.6,1.7-7.8,1.7c-8.5,0-16.4-8.6-16.4-19.5
		c0-13.7,9.8-25.4,22.3-25.4c9.8,0,12.8,6.8,12.8,6.8l1.8-4.3c0.4-1.1,1.3-1.5,2.4-1.5h5c1,0,1.7,0.9,1.5,2l-6.1,44.2
		c-2.5,17-10.8,24.4-23.7,24.4c-9.9,0-16-6.1-17.1-7.8c-0.6-0.9-1.7-2-0.2-3.9l4.8-5.8C6.9,83.9,8.3,84.5,9.1,85.4L9.1,85.4z
		 M31.2,52.6c0-4.2-2.6-7.5-6-7.5c-4,0-8.1,4.3-8.1,9.8c0,4.1,2.4,7.3,5.7,7.3C27.5,62.1,31.2,58.1,31.2,52.6z"/>
	<path class="st0" d="M76.6,31.1c9.8,0,17.7,8.9,17.7,20c0,13.7-9.8,25-23.2,25c-9.6,0-17.7-8.6-17.7-19.8
		C53.4,42.6,62.7,31.1,76.6,31.1z M80.6,52.3c0-4-2.4-7.2-5.6-7.2c-4.1,0-7.8,4.4-7.8,9.8c0,4,2.2,7.2,5.5,7.2
		C76.7,62.1,80.6,57.7,80.6,52.3z"/>
	<path class="st0" d="M122.7,31.1c9.8,0,17.7,8.9,17.7,20c0,13.7-9.9,25-23.2,25c-9.6,0-17.7-8.6-17.7-19.8
		C99.4,42.6,108.7,31.1,122.7,31.1z M126.6,52.3c0-4-2.4-7.2-5.6-7.2c-4.1,0-7.8,4.4-7.8,9.8c0,4,2.2,7.2,5.5,7.2
		C122.8,62.1,126.6,57.7,126.6,52.3z"/>
	<path class="st0" d="M145.6,56c0-14.4,11-25,22.6-25c4.6,0,7.4,1.7,7.4,1.7L180,2c0.2-1.2,0.6-2,2.2-2h12.1c1,0,1.7,1,1.6,2
		l-10,70.9c-0.2,1.1-1.2,2-2.1,2h-5c-0.6,0-1.4-0.6-1.6-1.3l-1.2-4.1c-2.1,2.4-7.4,6.4-14.2,6.4C151.7,76.1,145.6,66.5,145.6,56
		L145.6,56z M174.6,52.6c0.1-4.3-2.8-7.5-6.1-7.5c-4.2,0-8,4.4-8,9.8c0,4.1,2.6,7.3,5.9,7.3C170.5,62.1,174.6,57.8,174.6,52.6z"/>
	<path class="st0" d="M195.4,70.2l4.4-7.8c0.4-0.6,1.4-1.2,2.4-0.6c2,1.2,4.9,2,7.2,2c1.9,0,2.7-1,2.7-1.9c0-1.4-1.2-2.4-4.3-4.2
		c-5.8-3.4-9.2-7.1-9.2-12.3c0-7.6,6-14.2,17-14.2c6.3,0,11.7,2.5,13.3,3.5c0.8,0.5,0.9,1.4,0.2,2.5l-4.2,7.5c-0.4,0.6-1.3,1-2,0.6
		c-1.6-0.8-4.3-1.9-7.6-1.9c-1.6,0-2.4,0.6-2.4,1.5c0,1.3,1.3,2.1,3.3,3.3c6.5,3.8,11.4,7.1,11.4,13.3c0,8.7-6.2,14.7-18.8,14.7
		c-6.3,0-11.4-2.2-13-3.6C195.2,71.7,194.8,71.1,195.4,70.2L195.4,70.2z"/>
	<ellipse transform="matrix(0.1435 -0.9896 0.9896 0.1435 187.4632 260.8726)" class="st1" cx="244.4" cy="22.1" rx="12" ry="12"/>
	<g>
		<path class="st0" d="M53.9,96.5l0.8-1.3c0.1-0.2,0.4-0.2,0.5-0.1c0.1,0,1.2,0.9,2.3,0.9c0.6,0,1.1-0.4,1.1-1
			c0-0.7-0.6-1.2-1.7-1.6c-1.4-0.6-3.1-1.6-3.1-3.6c0-1.6,1.2-3.2,3.7-3.2c1.7,0,3,0.8,3.4,1.2c0.2,0.1,0.2,0.4,0.1,0.5l-0.8,1.2
			c-0.1,0.2-0.4,0.3-0.5,0.2c-0.1-0.1-1.3-1-2.3-1c-0.6,0-1,0.4-1,0.8c0,0.6,0.5,1.1,1.8,1.6c1.2,0.5,3.2,1.5,3.2,3.7
			c0,1.7-1.4,3.3-3.8,3.3c-2.1,0-3.2-0.9-3.6-1.2C53.8,96.8,53.8,96.7,53.9,96.5L53.9,96.5z"/>
		<path class="st0" d="M86.6,87.1c0-0.2,0.1-0.3,0.3-0.3h3.9c2,0,3.6,1.6,3.6,3.6s-1.6,3.6-3.6,3.6h-1.7v3.8c0,0.2-0.1,0.3-0.3,0.3
			h-1.9c-0.2,0-0.3-0.1-0.3-0.3L86.6,87.1L86.6,87.1z M90.6,91.6c0.7,0,1.3-0.6,1.3-1.3c0-0.7-0.6-1.2-1.3-1.2h-1.5v2.5H90.6z"/>
		<path class="st0" d="M124.2,86.6c3.2,0,5.8,2.6,5.8,5.8s-2.6,5.8-5.8,5.8s-5.8-2.6-5.8-5.8S121,86.6,124.2,86.6z M124.2,95.6
			c1.8,0,3.2-1.4,3.2-3.2s-1.4-3.2-3.2-3.2s-3.2,1.5-3.2,3.2S122.5,95.6,124.2,95.6z"/>
		<path class="st0" d="M155.2,87.1c0-0.2,0.1-0.3,0.3-0.3h4.8c1.9,0,3.5,1.6,3.5,3.5c0,1.5-1,2.7-2.4,3.2l2.2,4.1
			c0.1,0.2,0,0.5-0.3,0.5h-2.1c-0.1,0-0.2-0.1-0.3-0.1l-2.1-4.3h-1.1v4.1c0,0.2-0.1,0.3-0.3,0.3h-1.9c-0.2,0-0.3-0.1-0.3-0.3
			L155.2,87.1L155.2,87.1z M160.1,91.6c0.7,0,1.2-0.6,1.2-1.3s-0.6-1.2-1.2-1.2h-2.4v2.5H160.1z"/>
		<path class="st0" d="M190.6,89.1h-2.3c-0.2,0-0.3-0.1-0.3-0.3v-1.8c0-0.2,0.1-0.3,0.3-0.3h7.1c0.2,0,0.3,0.1,0.3,0.3v1.8
			c0,0.2-0.1,0.3-0.3,0.3h-2.3v8.6c0,0.2-0.1,0.3-0.3,0.3h-1.9c-0.2,0-0.3-0.1-0.3-0.3L190.6,89.1L190.6,89.1z"/>
		<path class="st0" d="M219.9,96.5l0.8-1.3c0.1-0.2,0.4-0.2,0.6-0.1c0.1,0,1.2,0.9,2.3,0.9c0.6,0,1.1-0.4,1.1-1
			c0-0.7-0.6-1.2-1.7-1.6c-1.4-0.6-3.1-1.6-3.1-3.6c0-1.6,1.2-3.2,3.7-3.2c1.7,0,3,0.8,3.4,1.2c0.2,0.1,0.2,0.4,0.1,0.5l-0.8,1.2
			c-0.1,0.2-0.4,0.3-0.6,0.2c-0.1-0.1-1.3-1-2.3-1c-0.6,0-1,0.4-1,0.8c0,0.6,0.5,1.1,1.8,1.6c1.2,0.5,3.2,1.5,3.2,3.7
			c0,1.7-1.4,3.3-3.8,3.3c-2.1,0-3.2-0.9-3.6-1.2C219.9,96.8,219.8,96.7,219.9,96.5L219.9,96.5z"/>
	</g>
</g>
</svg>
